<svg width="118" height="79" viewBox="0 0 118 79" fill="none" xmlns="http://www.w3.org/2000/svg">
<g clip-path="url(#clip0_1_3)">
<path d="M23.2 20.9V29.6H45.2V46.3H23.2V56.3H48.2V74H1V3.2H48.2V20.9H23.2Z" fill="#4025E8"/>
<path d="M77.5664 3.2C84.9664 3.2 91.4331 4.7 96.9664 7.7C102.566 10.7 106.866 14.8667 109.866 20.2C112.866 25.5333 114.366 31.6 114.366 38.4C114.366 45.1333 112.866 51.2 109.866 56.6C106.866 62 102.566 66.2667 96.9664 69.4C91.4331 72.4667 84.9664 74 77.5664 74H48.0664V3.2H77.5664ZM75.5664 54.2C80.5664 54.2 84.5331 52.8333 87.4664 50.1C90.3997 47.3667 91.8664 43.4667 91.8664 38.4C91.8664 33.3333 90.3997 29.4333 87.4664 26.7C84.5331 23.9667 80.5664 22.6 75.5664 22.6H70.2664V54.2H75.5664Z" fill="#272536"/>
</g>
<defs>
<clipPath id="clip0_1_3">
<rect width="118" height="79" fill="white"/>
</clipPath>
</defs>
</svg>
