<svg width="120" height="126" viewBox="0 0 120 126" fill="none" xmlns="http://www.w3.org/2000/svg">
<path d="M37.9562 109.241C29.3448 86.459 28.4219 52.8272 72.7657 45.2414C75.7125 44.7373 76.5848 40.5888 73.9632 39.1517L68.0515 35.9111C67.5444 35.6332 66.9424 35.5085 66.366 35.5552C7.65551 40.3127 14.8031 85.9215 26.0963 109.038C26.3626 109.583 26.7896 110.017 27.3217 110.308L33.2681 113.568C35.8834 115.002 39.0107 112.031 37.9562 109.241Z" fill="url(#paint0_linear)"/>
<path d="M87.8833 58.2862C103.488 72.0237 116.953 96.2108 88.1373 119.661C85.8121 121.553 87.0517 125.654 90.0496 125.654H94.5078C95.0807 125.654 95.663 125.478 96.1429 125.165C139.082 97.1507 114.537 65.5582 96.1351 52.6641C95.6427 52.319 95.0637 52.1466 94.4624 52.1466H89.9632C86.9725 52.1466 85.6385 56.3101 87.8833 58.2862Z" fill="url(#paint1_linear)"/>
<path d="M59.164 119.79C30.1013 96.6535 -0.290295 50.0151 58.9297 5.78907C61.319 4.00473 60.1376 0 57.1556 0H42.0468C41.4635 0 40.87 0.184181 40.3836 0.506116C-32.4816 48.7338 9.50986 103.262 40.3963 125.124C40.8957 125.477 41.4808 125.654 42.0927 125.654H57.2398C60.2147 125.654 61.4914 121.643 59.164 119.79Z" fill="url(#paint2_linear)"/>
<circle cx="75.0785" cy="117.801" r="7.8534" fill="#7E6CED"/>
<defs>
<linearGradient id="paint0_linear" x1="62.7635" y1="33.0125" x2="20.8303" y2="106.774" gradientUnits="userSpaceOnUse">
<stop stop-color="#3C20E8"/>
<stop offset="1" stop-color="#B8AFF2"/>
</linearGradient>
<linearGradient id="paint1_linear" x1="99.8953" y1="125.654" x2="99.8953" y2="52.1466" gradientUnits="userSpaceOnUse">
<stop stop-color="#3C20E8"/>
<stop offset="1" stop-color="#B8AFF2"/>
</linearGradient>
<linearGradient id="paint2_linear" x1="33.6126" y1="0" x2="33.6126" y2="125.654" gradientUnits="userSpaceOnUse">
<stop stop-color="#3C20E8"/>
<stop offset="1" stop-color="#B8AFF2"/>
</linearGradient>
</defs>
</svg>
