<svg width="104" height="83" viewBox="0 0 104 83" fill="none" xmlns="http://www.w3.org/2000/svg">
<path fill-rule="evenodd" clip-rule="evenodd" d="M31.32 5.04003C29.45 5.04003 27.59 5.36003 26.42 6.33003C25.62 7.00003 25.1 8.09003 25.1 9.81003V22.35C25.1 24.09 24.09 26.08 21.99 27.55C24.09 29.02 25.1 31.01 25.1 32.75V45.29C25.1 47.01 25.62 48.1 26.42 48.77C27.59 49.74 29.46 50.06 31.32 50.06V54.95C28.49 54.95 25.51 54.34 23.31 52.51C21.44 50.95 20.22 48.64 20.22 45.29V32.75C20.22 32.39 19.77 31.84 18.83 31.31C17.75 30.7 16.17 30.27 14 30.27V29.72V25.39V24.84C16.17 24.84 17.76 24.41 18.83 23.8C19.77 23.27 20.22 22.72 20.22 22.36V9.82003C20.22 6.47003 21.44 4.16003 23.31 2.60003C25.51 0.770029 28.49 0.160034 31.32 0.160034V5.04003Z" fill="black"/>
<path fill-rule="evenodd" clip-rule="evenodd" d="M61.71 54.93C64.54 54.93 67.52 54.32 69.72 52.49C71.59 50.93 72.81 48.62 72.81 45.27V32.73C72.81 32.37 73.26 31.82 74.2 31.29C75.28 30.68 76.86 30.25 79.03 30.25V29.7V25.37V24.82C76.86 24.82 75.27 24.39 74.2 23.78C73.26 23.25 72.81 22.7 72.81 22.34V9.80002C72.81 6.45002 71.59 4.14002 69.72 2.58002C67.52 0.750017 64.54 0.140015 61.71 0.140015V5.03001C63.58 5.03001 65.44 5.35001 66.61 6.32001C67.41 6.99001 67.93 8.08002 67.93 9.80002V22.34C67.93 24.08 68.94 26.07 71.04 27.54C68.94 29.01 67.93 31 67.93 32.74V45.28C67.93 47 67.41 48.09 66.61 48.76C65.44 49.73 63.57 50.05 61.71 50.05V54.93Z" fill="black"/>
<path fill-rule="evenodd" clip-rule="evenodd" d="M46.16 8.33002C55.14 8.33002 62.42 9.42001 62.42 10.77C62.42 11.42 60.72 12.01 57.95 12.45V19.36C57.95 20.56 56.97 21.54 55.77 21.54C54.57 21.54 53.59 20.56 53.59 19.36V12.94C52.5 13.02 51.35 13.09 50.14 13.14V25.15C50.14 26.35 49.16 27.33 47.95 27.33C46.75 27.33 45.77 26.35 45.77 25.15V13.21C36.98 13.18 29.92 12.1 29.92 10.77C29.9 9.42001 37.18 8.33002 46.16 8.33002Z" fill="#EBB38E"/>
<path fill-rule="evenodd" clip-rule="evenodd" d="M70.01 12.27H79.85C82.39 12.27 84.71 13.31 86.38 14.98C88.05 16.65 89.09 18.97 89.09 21.51V34.45C89.09 36.99 88.05 39.31 86.38 40.98C84.71 42.65 82.39 43.69 79.85 43.69H70.01V38.89H79.85C81.07 38.89 82.18 38.39 82.99 37.58C83.8 36.77 84.3 35.66 84.3 34.44V21.5C84.3 20.28 83.8 19.17 82.99 18.36C82.18 17.55 81.07 17.05 79.85 17.05H70.01V12.27Z" fill="black"/>
<path d="M9.20312 71.4023H3.34912V76.1894H10.1494V77.6459H1.56787V64.1381H10.0566V65.6039H3.34912V69.9457H9.20312V71.4023ZM21.876 64.1381V73.3227C21.8698 74.5968 21.4678 75.6389 20.6699 76.4492C19.8783 77.2594 18.8021 77.714 17.4414 77.8129L16.9683 77.8315C15.4901 77.8315 14.3118 77.4326 13.4336 76.6347C12.5553 75.8369 12.11 74.739 12.0977 73.3412V64.1381H13.8604V73.2856C13.8604 74.2628 14.1294 75.0235 14.6675 75.5678C15.2056 76.1059 15.9725 76.3749 16.9683 76.3749C17.9764 76.3749 18.7464 76.1059 19.2783 75.5678C19.8164 75.0297 20.0854 74.2721 20.0854 73.2949V64.1381H21.876ZM32.3223 71.4023H26.4683V76.1894H33.2686V77.6459H24.687V64.1381H33.1758V65.6039H26.4683V69.9457H32.3223V71.4023ZM40.4399 72.1816H37.2671V77.6459H35.4766V64.1381H39.9482C41.4697 64.1381 42.6387 64.4845 43.4551 65.1772C44.2777 65.8699 44.689 66.878 44.689 68.2016C44.689 69.0427 44.4601 69.7757 44.0024 70.4003C43.5509 71.025 42.9201 71.492 42.1099 71.8012L45.2827 77.5346V77.6459H43.3716L40.4399 72.1816ZM37.2671 70.725H40.0039C40.8883 70.725 41.5903 70.4962 42.1099 70.0385C42.6356 69.5808 42.8984 68.9685 42.8984 68.2016C42.8984 67.3666 42.6479 66.7265 42.147 66.2812C41.6522 65.8359 40.9347 65.6101 39.9946 65.6039H37.2671V70.725ZM49.105 77.6459H47.3237V64.1381H49.105V77.6459ZM55.8032 71.3652L54.1519 73.0815V77.6459H52.3706V64.1381H54.1519V70.8178L60.1543 64.1381H62.3066L56.9907 70.1035L62.7241 77.6459H60.5903L55.8032 71.3652ZM64.0508 76.746C64.0508 76.4492 64.1374 76.2018 64.3105 76.0038C64.4899 75.8059 64.7559 75.707 65.1084 75.707C65.4609 75.707 65.7269 75.8059 65.9062 76.0038C66.0918 76.2018 66.1846 76.4492 66.1846 76.746C66.1846 77.0305 66.0918 77.2687 65.9062 77.4604C65.7269 77.6521 65.4609 77.748 65.1084 77.748C64.7559 77.748 64.4899 77.6521 64.3105 77.4604C64.1374 77.2687 64.0508 77.0305 64.0508 76.746ZM69.2925 77.6459V64.1381H73.1055C74.2806 64.1381 75.3197 64.3979 76.2227 64.9174C77.1257 65.437 77.8215 66.176 78.3101 67.1347C78.8049 68.0934 79.0553 69.1943 79.0615 70.4374V71.3002C79.0615 72.5743 78.8141 73.6907 78.3193 74.6494C77.8307 75.608 77.1287 76.344 76.2134 76.8574C75.3042 77.3707 74.2435 77.6336 73.0312 77.6459H69.2925ZM71.0737 65.6039V76.1894H72.9478C74.3208 76.1894 75.3877 75.7626 76.1484 74.9091C76.9154 74.0556 77.2988 72.8403 77.2988 71.2631V70.4745C77.2988 68.9407 76.937 67.7501 76.2134 66.9028C75.4959 66.0493 74.4754 65.6163 73.1519 65.6039H71.0737ZM89.3965 71.4023H83.5425V76.1894H90.3428V77.6459H81.7612V64.1381H90.25V65.6039H83.5425V69.9457H89.3965V71.4023ZM97.0317 75.2802L100.891 64.1381H102.839L97.8296 77.6459H96.2524L91.252 64.1381H93.1909L97.0317 75.2802Z" fill="black"/>
</svg>
