<?xml version="1.0" encoding="UTF-8" standalone="no"?>
<!-- Created with Inkscape (http://www.inkscape.org/) -->

<svg
   xmlns:dc="http://purl.org/dc/elements/1.1/"
   xmlns:cc="http://creativecommons.org/ns#"
   xmlns:rdf="http://www.w3.org/1999/02/22-rdf-syntax-ns#"
   xmlns:svg="http://www.w3.org/2000/svg"
   xmlns="http://www.w3.org/2000/svg"
   xmlns:sodipodi="http://sodipodi.sourceforge.net/DTD/sodipodi-0.dtd"
   xmlns:inkscape="http://www.inkscape.org/namespaces/inkscape"
   height="1080"
   width="1920"
   viewBox="0 0 1920 1080"
   id="svg2"
   version="1.1"
   inkscape:version="0.91 r13725"
   sodipodi:docname="logo.svg"
   inkscape:export-filename="/home/erikprogramador/Dropbox/Sales City/logo.png"
   inkscape:export-xdpi="90"
   inkscape:export-ydpi="90">
  <defs
     id="defs8" />
  <sodipodi:namedview
     pagecolor="#ffffff"
     bordercolor="#666666"
     borderopacity="1"
     objecttolerance="10"
     gridtolerance="10"
     guidetolerance="10"
     inkscape:pageopacity="0"
     inkscape:pageshadow="2"
     inkscape:window-width="1366"
     inkscape:window-height="744"
     id="namedview6"
     showgrid="false"
     showborder="true"
     units="px"
     inkscape:zoom="0.27074478"
     inkscape:cx="1038.8315"
     inkscape:cy="505.15998"
     inkscape:window-x="0"
     inkscape:window-y="24"
     inkscape:window-maximized="1"
     inkscape:current-layer="svg2"
     inkscape:object-nodes="false"
     showguides="true"
     inkscape:guide-bbox="true"
     fit-margin-top="0"
     fit-margin-left="0"
     fit-margin-right="0"
     fit-margin-bottom="0"
     inkscape:showpageshadow="false" />
  <metadata
     id="metadata4">
    <rdf:RDF>
      <cc:Work
         rdf:about="">
        <dc:format>image/svg+xml</dc:format>
        <dc:type
           rdf:resource="http://purl.org/dc/dcmitype/StillImage" />
        <dc:title></dc:title>
      </cc:Work>
    </rdf:RDF>
  </metadata>
  <rect
     style="opacity:1;fill:#ffffff;fill-opacity:1;stroke:none;stroke-width:10;stroke-linecap:round;stroke-linejoin:round;stroke-miterlimit:4;stroke-dasharray:none;stroke-opacity:1"
     id="rect3192"
     width="1920"
     height="1080"
     x="0"
     y="-3.0517578e-05" />
  <path
     style="opacity:1;fill:#1a1a1a;fill-opacity:1;stroke:none;stroke-width:5.24300003;stroke-linecap:round;stroke-linejoin:round;stroke-miterlimit:4;stroke-dasharray:none;stroke-opacity:1"
     d="m 1131.8546,460.29207 c -14.9092,0 -31.0143,3.99864 -48.2955,12.018 -17.2811,8.01936 -32.0788,17.56908 -44.3902,28.63805 -16.3776,14.79623 -24.5619,29.7679 -24.5619,44.90308 0,7.7934 2.3116,14.4516 6.9426,19.9861 8.4711,9.9394 21.1759,14.9107 38.1183,14.9107 13.2149,0 27.4011,-2.8784 42.5362,-8.6388 12.6346,-4.9029 22.8037,-11.0254 30.7944,-18.211 -0.4517,0.5648 -0.6837,1.0379 -0.6837,1.4332 0,1.2424 0.5089,1.4744 1.5252,0.6837 1.0166,-0.7906 2.8195,-2.3748 5.4173,-4.7466 2.7108,-2.372 4.6877,-4.0721 5.9301,-5.0886 -3.5014,4.179 -5.987,7.4633 -7.4553,9.8352 -1.4684,2.372 -2.1958,5.5851 -2.1958,9.6513 0,2.146 0.9593,4.1229 2.8795,5.9301 2.0331,1.8071 5.0854,2.7086 9.1516,2.7086 3.2755,0 7.448,-1.3522 12.5307,-4.063 5.1957,-2.8237 9.6582,-5.7601 13.3855,-8.8097 3.7273,-3.0496 8.3058,-6.9454 13.7273,-11.6892 0.2255,-0.2256 0.342,-0.4578 0.342,-0.6838 0,-1.6942 -0.7407,-1.855 -2.209,-0.4995 -6.8899,6.2122 -13.0394,11.0095 -18.4608,14.3979 -5.3086,3.3885 -9.1596,5.0754 -11.5315,5.0754 -2.259,0 -3.3793,-1.4681 -3.3793,-4.4048 0,-2.9366 1.5262,-8.0107 4.5758,-15.2394 3.1626,-7.3417 7.0583,-13.38835 11.6893,-18.13218 0.3386,-0.45173 0.1649,-0.84455 -0.513,-1.18338 -0.6778,-0.45173 -1.7531,-0.68372 -3.2215,-0.68372 -1.3554,0 -3.1583,0.56685 -5.4173,1.69617 -2.146,1.12953 -6.2737,4.69051 -12.373,10.67681 -4.6265,4.6266 -6.9028,6.7108 -9.0332,8.6387 0.3656,-0.589 0.6046,-1.1188 0.6046,-1.5252 0,-0.5648 -0.2767,-0.8415 -0.8415,-0.8415 -0.1131,0 -0.4026,0.103 -0.8547,0.3285 -8.5841,7.0028 -17.1612,12.2639 -25.7453,15.7653 -1.196,0.4942 -2.5079,0.9396 -3.7737,1.407 l 0,-33.45049 -9.2699,-2.09067 0,-8.36264 -0.7758,-0.17099 c 2.4622,-0.69362 5.1042,-1.48223 8.389,-2.57715 7.9064,-2.71077 15.756,-6.03983 23.5494,-9.99303 7.9064,-3.95319 14.6357,-8.69251 20.1702,-14.22702 5.6474,-5.64742 8.4678,-11.24333 8.4678,-16.77778 0,-3.9532 -1.4681,-7.28233 -4.4048,-9.9931 -5.0827,-4.405 -12.1917,-6.60069 -21.3405,-6.60069 z m -407.33578,2.70869 c -7.90639,0 -17.50095,2.1957 -28.79578,6.60069 -11.18193,4.40499 -21.51709,10.62559 -31.0048,18.64495 -9.48772,7.90639 -14.24009,15.698 -14.24009,23.37847 0,4.06616 1.70007,7.67205 5.08858,10.83462 3.5014,3.16257 8.47257,6.05404 14.91067,8.65185 6.55101,2.59787 9.99607,4.00806 10.33496,4.23393 4.29203,2.5978 6.4297,5.53413 6.4297,8.80963 0,3.1626 -1.51299,6.099 -4.5626,8.8097 -2.93664,2.5978 -6.22093,4.9095 -9.83529,6.9426 -3.50141,1.9201 -7.674,3.6202 -12.53079,5.0886 -4.74383,1.4682 -12.08472,2.2538 -22.02416,2.3667 -6.66398,0 -13.67008,-0.7855 -21.01171,-2.3667 -7.3417,-1.5814 -13.09845,-4.2409 -17.27751,-7.9682 2.03305,7.7935 7.33908,13.4922 15.92313,17.1065 8.58412,3.7273 17.16124,5.6014 25.7453,5.6014 4.74382,0 10.73249,-0.6247 17.96123,-1.8671 7.0028,-1.2424 13.55818,-3.3933 19.6574,-6.4429 6.21217,-3.1625 10.83549,-7.1164 13.8851,-11.8602 1.92015,-3.0496 2.89274,-6.2047 2.89274,-9.4803 0,-7.4546 -4.52052,-13.44325 -13.55637,-17.96121 -1.69421,-0.79063 -4.41179,-1.92399 -8.13912,-3.39234 -3.72727,-1.58132 -6.99836,-3.22343 -9.8221,-4.91765 -3.27554,-1.80719 -4.80166,-4.11881 -4.57579,-6.94255 0.45173,-3.61437 5.08824,-9.03632 13.89823,-16.26506 8.81005,-7.34163 18.28861,-13.72306 28.45398,-19.14461 2.71078,-1.58125 6.27176,-3.2682 10.67675,-5.07538 2.71078,-1.01656 5.02247,-1.8152 6.94262,-2.37996 2.03305,-0.56483 4.18391,-0.84152 6.44289,-0.84152 2.25898,0 3.84306,0.72755 4.74665,2.19583 -11.06896,7.68053 -19.15046,15.82006 -24.23312,24.40412 -3.50147,5.87335 -5.24638,10.84458 -5.24638,14.91075 0,4.51796 1.74491,8.12377 5.24638,10.83455 l 0,-1.01245 c 0,-3.84023 1.64211,-8.24476 4.91758,-13.21451 3.38851,-5.08266 7.28428,-9.66114 11.68927,-13.7273 11.97256,-11.06897 18.12206,-18.35183 18.46089,-21.85323 l 0,-1.52531 c 0,-3.5014 -1.52618,-6.20578 -4.57579,-8.12593 -3.0496,-2.03305 -7.33813,-3.05048 -12.87265,-3.05048 z m 399.36758,2.36676 c 4.0662,0 7.788,0.68264 11.1764,2.03803 3.5015,1.35539 5.2596,3.78301 5.2596,7.28448 0,5.42148 -4.4625,11.68691 -13.3855,18.80268 -8.9229,7.11577 -18.7494,13.10444 -29.4795,17.96123 -3.59,1.60407 -6.7736,2.84353 -9.7695,3.9052 l 0,-7.5737 -34.6207,-7.7972 -1.9592,0.94668 0,71.16108 c -0.9091,-0.1501 -1.8436,-0.247 -2.735,-0.4342 l 0,-69.39916 -1.946,0.95987 0,67.96599 c -0.9269,-0.2255 -1.8278,-0.5096 -2.7349,-0.7758 l 0,-65.8622 -1.9592,0.94675 0,64.36315 c -0.9288,-0.307 -1.8275,-0.6742 -2.735,-1.0256 l 0,-62.00957 -1.3148,0.64427 c 1.2957,-1.32334 2.6031,-2.6483 4.0367,-3.98409 11.0689,-10.27835 24.2245,-19.20339 39.4726,-26.77088 15.248,-7.56757 29.479,-11.34741 42.694,-11.34741 z m -273.61273,14.39789 c -3.0496,0.1131 -6.94544,1.07244 -11.68927,2.87962 -4.74382,1.80712 -8.4657,3.72605 -11.17641,5.7591 -0.56483,0.56483 -0.73872,1.02868 -0.51299,1.36751 0.2262,0.33863 1.81008,-0.22755 4.74672,-1.69617 2.59781,-1.46836 3.89207,-1.01764 3.89207,1.35431 0,1.01656 -0.56685,2.60064 -1.69624,4.74672 -6.32507,11.06896 -15.07616,23.87658 -26.25809,38.44695 -6.09921,8.13235 -11.79792,14.35295 -17.10651,18.64505 -0.67773,0.5648 -1.01245,1.0734 -1.01245,1.5252 0,2.4848 3.27109,0.2181 9.8221,-6.7848 -3.61437,7.1158 -5.41731,13.2204 -5.41731,18.3031 0,2.8237 0.90151,5.3094 2.70869,7.4554 1.80718,2.146 5.02031,3.2214 9.65117,3.2214 5.42155,0 11.29423,-2.1509 17.61937,-6.4429 6.0951,-4.1359 13.79475,-10.987 22.93145,-20.2622 -2.06637,4.0578 -3.11625,8.4384 -3.11625,13.1487 0,4.518 1.58415,8.079 4.74672,10.6768 3.27547,2.4849 7.67999,3.7211 13.21451,3.7211 5.64741,0 12.47956,-2.0928 20.49892,-6.2719 2.59781,-1.3554 5.9849,-3.6671 10.16396,-6.9426 4.17913,-3.3884 6.94154,-5.7001 8.29693,-6.9425 1.46828,-1.3554 4.28866,-3.957 8.46779,-7.7972 0.67766,-0.5649 1.02558,-1.2343 1.02558,-2.0249 0,-1.2425 -0.68265,-1.1976 -2.03803,0.1575 -5.87335,5.6475 -12.87945,11.3013 -21.01178,16.9488 -8.13226,5.5345 -14.84847,8.2968 -20.15706,8.2968 -3.04961,0 -5.20047,-0.9014 -6.44289,-2.7086 -1.12945,-1.9201 -1.68304,-3.955 -1.68304,-6.101 0,-5.6474 2.70445,-11.7389 8.12593,-18.29 4.40499,-5.30857 8.98348,-9.04351 13.72737,-11.18959 2.14601,-1.01649 4.18088,-1.52524 6.10103,-1.52524 4.06609,0 6.08783,1.70014 6.08783,5.08857 0,3.38846 -2.98114,6.71756 -8.96745,9.99306 -6.09921,3.1626 -11.41837,4.7468 -15.93633,4.7468 -0.79062,-10e-5 -1.40217,0.1158 -1.85397,0.342 -0.45173,0.1131 -0.62542,0.3319 -0.51299,0.6705 0.2262,0.3386 1.30133,0.513 3.22148,0.513 4.96968,0 10.21775,-1.3074 15.7522,-3.9052 5.64741,-2.7108 9.48522,-5.8079 11.51834,-9.30934 1.01655,-1.80718 1.52524,-3.44936 1.52524,-4.91765 0,-1.58132 -0.45106,-3.04947 -1.35431,-4.40486 -2.14602,-2.71077 -6.37658,-4.06293 -12.70172,-4.06293 -9.37475,0 -18.35776,3.50302 -26.94181,10.50582 -3.29809,2.64716 -5.95037,5.49946 -7.98133,8.54666 -0.0673,-0.247 -0.20062,-0.4207 -0.47327,-0.4207 -0.45173,-0.1131 -1.75918,0.9625 -3.9052,3.2215 -2.14601,2.146 -6.31861,5.707 -12.53079,10.6768 -6.21217,4.9697 -11.29934,8.1828 -15.25253,9.6511 -3.8403,1.4684 -6.66068,2.2091 -8.46786,2.2091 -3.04961,0 -4.57572,-1.5262 -4.57572,-4.5758 0,-1.5813 0.39248,-3.5582 1.18338,-5.9301 3.16257,-9.0359 10.56143,-21.17404 22.19509,-36.42214 1.69421,-2.14601 6.38869,-7.40713 14.06922,-15.76532 7.79343,-8.47116 12.47471,-14.11191 14.05603,-16.93565 1.69422,-2.82375 2.55082,-5.09053 2.55082,-6.78475 0,-2.93671 -2.38278,-4.40486 -7.12661,-4.40486 z m 390.88663,17.61937 c -2.9366,0 -5.9758,0.40595 -9.1384,1.19651 -3.1626,0.67773 -5.1974,1.5212 -6.101,2.53776 -0.9036,1.01649 -2.153,2.65867 -3.7343,4.91758 -1.4683,2.14608 -3.4452,5.08238 -5.9301,8.80972 -2.4848,3.72726 -4.5645,6.82446 -6.2588,9.30931 -1.3554,0.1131 -3.4482,0.56348 -6.272,1.35431 -2.7108,0.67773 -4.8036,1.86912 -6.2719,3.56334 -1.3554,1.58125 -1.9221,2.93347 -1.6962,4.063 0.3386,1.12945 0.8476,2.03089 1.5252,2.70862 0.7907,0.67766 2.2589,0.62003 4.4049,-0.171 -3.0496,3.72727 -8.6904,9.20727 -16.9357,16.43597 -0.9035,0.7906 -1.3543,1.3574 -1.3543,1.6962 0,0.3386 0.2188,0.7316 0.6706,1.1834 0.3386,0.3386 0.9635,0.061 1.8671,-0.8416 l 3.0505,-2.8795 c -2.146,5.3085 -3.2215,9.887 -3.2215,13.7273 0,8.0194 3.7799,12.0179 11.3474,12.0179 5.5346,0 11.5812,-2.3696 18.1322,-7.1135 6.664,-4.8567 14.8483,-12.3715 24.5619,-22.5369 0.9036,-0.7907 1.1935,-1.5182 0.8547,-2.1959 -0.3387,-0.6777 -1.0795,-0.4012 -2.209,0.8415 -6.0993,6.0993 -13.2661,12.2619 -21.5114,18.4741 -6.3251,4.8568 -11.2384,7.2844 -14.7398,7.2844 -3.2755,0 -4.9176,-1.9769 -4.9176,-5.9301 0,-1.4683 0.3925,-3.2713 1.1833,-5.4173 2.372,-7.4546 8.1419,-17.0623 17.2907,-28.80897 2.8237,-0.45173 5.3673,-0.67052 7.6263,-0.67052 5.1957,0 8.9755,1.17826 11.3474,3.55021 0.7906,0.79062 1.4602,0.96458 2.0249,0.51299 0.6777,-0.45173 0.5749,-1.46923 -0.3286,-3.05055 -2.3718,-3.6143 -7.401,-6.04199 -15.0816,-7.28441 6.4381,-7.68046 12.0789,-13.84309 16.9357,-18.47402 4.8568,-4.63086 7.2844,-7.21931 7.2844,-7.78407 0,-0.67766 -1.4682,-1.02558 -4.4049,-1.02558 z m -61.9176,10.16396 c -3.0496,0 -5.4772,1.07547 -7.2844,3.22148 -1.8072,2.14601 -2.8246,4.18088 -3.0505,6.10103 -0.2262,1.92015 0.2828,3.3883 1.5253,4.40486 1.2424,1.01649 2.8265,1.30644 4.7467,0.85465 2.033,-0.56483 3.836,-1.69813 5.4173,-3.39241 1.5812,-1.80719 2.4828,-3.66809 2.7086,-5.58817 0.2255,-2.03312 -0.1669,-3.44331 -1.1834,-4.23393 -1.0165,-0.9036 -1.976,-1.36751 -2.8796,-1.36751 z m -142.2039,0.5655 0,27.34944 -4.6678,-1.0519 -1.0519,0.51299 0,30.22903 c -0.5197,-0.3386 -0.9949,-0.7239 -1.4859,-1.0913 l 0,-28.42768 -1.0518,0.51299 0,27.11269 c -0.5163,-0.4261 -1.0045,-0.8796 -1.4859,-1.3411 l 0,-25.04842 -1.0519,0.51299 0,23.48373 c -0.5204,-0.5575 -1.0109,-1.1457 -1.4858,-1.7489 l 0,-21.01166 -1.0519,0.51299 0,19.13147 c -0.091,-0.1319 -0.1999,-0.2471 -0.2894,-0.381 -2.7108,-4.0661 -4.063,-8.8186 -4.063,-14.2401 0,-11.13812 5.9179,-22.80733 17.6851,-35.01518 z m 278.7276,4.18129 c -1.4684,0 -2.7046,0.17369 -3.7211,0.51299 -2.7107,0.79069 -5.879,5.36917 -9.4934,13.72736 -4.0662,5.98625 -8.9794,12.42564 -14.7398,19.31552 -12.0855,14.6834 -20.3278,22.0242 -24.7328,22.0242 -0.9036,0 -1.3543,-0.5669 -1.3543,-1.6962 0,-1.1295 0.8435,-2.9456 2.5377,-5.4304 l 5.4304,-7.4554 c 1.9202,-2.4849 3.4332,-4.5646 4.5627,-6.2588 1.2424,-1.8072 2.3178,-3.7841 3.2214,-5.9301 0.9036,-2.25898 1.3543,-4.29384 1.3543,-6.10103 0,-1.80718 -0.3346,-3.27533 -1.0124,-4.40485 -1.4683,-3.04961 -4.2307,-4.57573 -8.2969,-4.57573 -3.6144,0 -6.8406,1.0754 -9.6644,3.22142 -2.8236,2.14601 -6.7775,5.80986 -11.8601,11.00559 -5.0827,5.1956 -8.3538,8.4218 -9.8222,9.6643 -1.4683,1.1295 -2.151,2.0889 -2.038,2.8796 0,0.7906 0.5089,0.7906 1.5252,0 1.1295,-0.9036 4.4586,-3.956 9.9931,-9.1516 5.5345,-5.19562 9.6622,-8.81464 12.373,-10.84775 2.8237,-2.03305 4.9166,-3.05048 6.2719,-3.05048 1.3554,0 2.025,0.50895 2.025,1.52524 0,1.01656 -0.6699,2.26591 -2.025,3.73426 -9.9394,11.52073 -15.6962,19.54433 -17.2774,24.06223 -0.7907,2.5978 -1.1966,4.8515 -1.1966,6.7717 0,5.4214 2.8915,8.1259 8.6519,8.1259 7.5676,0 18.3984,-8.6931 32.5169,-26.0872 3.6144,-4.6309 6.7247,-8.91943 9.3225,-12.87263 -10.5042,20.33073 -19.648,35.74003 -27.4415,46.24423 -7.6805,10.6172 -15.9808,19.1494 -24.9038,25.5875 -8.81,6.551 -17.4582,9.8222 -25.9293,9.8222 -6.4381,0 -12.0788,-1.9769 -16.9356,-5.9301 -4.9698,-3.9532 -8.0221,-9.0853 -9.1516,-15.4104 0,-0.4518 -0.1737,-0.7866 -0.513,-1.0125 -0.3386,-0.2262 -0.616,-0.2262 -0.8415,0 -0.2262,0.2262 -0.342,0.6187 -0.342,1.1834 1.3554,8.2453 4.9744,14.3367 10.8478,18.2899 5.7603,3.9532 12.9272,5.9301 21.5113,5.9301 8.5841,0 16.9424,-2.1376 25.0747,-6.4297 8.2453,-4.292 15.3674,-9.5981 21.3536,-15.9232 5.9863,-6.3251 11.0603,-13.1124 15.2395,-20.3411 4.179,-7.2287 7.1734,-13.5522 8.9806,-18.9737 1.8071,-5.4215 3.726,-11.3522 5.7591,-17.7902 2.146,-6.43815 3.9041,-11.11944 5.2595,-14.05608 2.259,-4.74389 5.0214,-7.11354 8.2969,-7.11354 0.2255,0 0.6766,0.0606 1.3543,0.17099 0.7906,0 1.6342,-0.17369 2.5377,-0.51299 1.0166,-0.45173 1.5253,-1.01844 1.5253,-1.69617 0,-0.67766 -0.3346,-1.63713 -1.0124,-2.87955 -0.6778,-1.24249 -1.7532,-1.86717 -3.2215,-1.86717 z m -247.5519,2.81384 0,3.45812 c -0.014,0.0673 -0.067,0.0949 -0.067,0.17099 0,0.0606 0.061,0.10166 0.067,0.15754 l 0,53.96258 c -0.769,0.047 -1.4953,0.075 -2.2221,0.105 l 0,-56.78954 2.2221,-1.06502 z m -3.8,1.84085 0,56.09268 c -0.5318,0.013 -1.1888,0.079 -1.6962,0.079 -0.1757,0 -0.3379,-0.027 -0.513,-0.027 l 0,-55.067 2.209,-1.07822 z m -3.7868,1.84084 0,54.22544 c -0.7456,-0.02 -1.474,-0.076 -2.209,-0.1184 l 0,-53.02908 2.209,-1.07816 z m -112.64553,1.13074 c -1.80719,0 -4.51157,0.9015 -8.12593,2.70868 -3.61437,1.69422 -6.88547,3.78712 -9.82211,6.27196 -2.82374,2.37195 -7.00946,6.20976 -12.54398,11.51836 -5.53445,5.1956 -9.76501,9.0334 -12.70165,11.5183 -0.7907,0.6777 -1.08058,1.4184 -0.85472,2.209 0.2262,0.7906 0.85061,0.7906 1.86717,0 1.01649,-0.7906 4.01082,-3.4503 8.98058,-7.9681 4.96975,-4.518 9.6062,-8.52977 13.89823,-12.03118 4.29209,-3.61436 8.58062,-6.55073 12.87265,-8.80971 4.40499,-2.37188 7.39932,-3.55015 8.98064,-3.55015 1.58126,0 2.70156,0.1609 3.37922,0.49953 -2.82368,0.79063 -5.97884,2.88346 -9.48024,6.27196 -3.38851,3.38844 -5.93206,6.44073 -7.62627,9.15151 -1.58132,2.71074 -3.61619,6.38784 -6.10103,11.01864 -2.37195,4.518 -5.13436,8.8646 -8.29693,13.0436 -4.29203,5.6474 -9.32123,8.4678 -15.08161,8.4678 -4.63093,0 -7.95998,-2.2537 -9.9931,-6.7715 -0.1131,-0.4518 -0.34469,-0.6838 -0.68372,-0.6838 -0.45173,0 -0.67052,0.1158 -0.67052,0.342 0,0.2262 0.0606,0.3871 0.17099,0.4995 2.71078,8.2453 8.86028,12.373 18.46089,12.373 9.71358,0 19.3661,-3.3871 28.96671,-10.164 4.63093,-3.2755 8.48186,-6.2119 11.53154,-8.8097 3.1625,-2.7107 5.80892,-5.1384 7.955,-7.2844 2.14601,-2.146 3.22141,-3.3374 3.22141,-3.5633 l 0,-0.8415 c -0.45173,-0.6777 -1.19247,-0.5615 -2.20896,0.342 -4.74389,4.8568 -10.21068,9.3641 -16.42286,13.5432 -6.09921,4.0661 -10.61966,6.6677 -13.55637,7.7972 3.5014,-3.9532 6.37981,-9.4332 8.63872,-16.436 2.37195,-7.0028 4.46484,-13.15226 6.27203,-18.46085 1.92008,-5.30851 4.3477,-8.5928 7.28441,-9.83522 -1.01656,-1.58132 -3.7921,-2.36683 -8.31006,-2.36683 z m -200.61079,5.08857 c -3.50141,0 -7.12042,0.61129 -10.84768,1.85404 -8.35826,2.48485 -15.36436,6.72854 -21.01178,12.71485 -7.4546,8.01934 -11.17641,16.20364 -11.17641,24.56184 0,2.9367 1.13336,5.4223 3.39234,7.4554 2.37194,1.9201 5.19232,2.8796 8.46779,2.8796 3.27554,0 7.79605,-1.687 13.55644,-5.0755 5.87328,-3.5014 11.34007,-8.4146 16.42279,-14.7397 -2.03305,4.8568 -3.03736,8.4626 -3.03736,10.8346 0,2.3719 0.84348,4.4648 2.5377,6.2719 1.80718,1.6943 4.00288,2.5377 6.60069,2.5377 8.80998,0 22.93818,-9.1438 42.36534,-27.4414 0.45173,-0.4518 0.67053,-0.8446 0.67053,-1.1834 l 0,-0.6838 c -0.33863,-0.7906 -1.06638,-0.6167 -2.19584,0.513 -9.60068,9.0358 -18.36489,15.81 -26.27128,20.328 -3.9532,2.146 -6.83154,3.2214 -8.63872,3.2214 -1.69422,0 -2.53769,-1.0174 -2.53769,-3.0505 0,-2.0331 0.9594,-4.5187 2.87955,-7.4553 2.03305,-2.9367 3.67522,-5.2484 4.91765,-6.9426 1.35538,-1.6943 2.64958,-3.2784 3.892,-4.7467 1.24249,-1.4683 2.25992,-2.7177 3.05055,-3.7343 0.90359,-1.0165 1.35431,-1.918 1.35431,-2.7086 0,-0.79068 -0.1158,-1.35732 -0.342,-1.69622 -1.46835,-2.48484 -3.89597,-3.72107 -7.28441,-3.72107 -0.90359,-2.71078 -3.04132,-5.0224 -6.42976,-6.94255 -3.27553,-2.03305 -6.72059,-3.05055 -10.33496,-3.05055 z m 335.80642,1.60421 0,44.37702 c -0.6039,0.1172 -1.1752,0.2545 -1.7882,0.3683 l 0,-43.87747 1.7882,-0.86778 z m -3.0636,1.48579 0,43.50923 c -0.6456,0.095 -1.1618,0.1246 -1.7883,0.2101 l 0,-42.85182 0.8547,-0.42076 0.9336,-0.44702 z m -3.0637,1.48579 0,42.39164 c -0.6133,0.08 -1.1941,0.1394 -1.7882,0.2101 l 0,-41.73423 1.7882,-0.86784 z m -322.05279,0.49953 c 3.72727,0 5.58818,1.24936 5.58818,3.73427 0,2.37188 -2.65955,6.32564 -7.96813,11.86024 -1.58126,1.5812 -3.50019,3.4421 -5.75917,5.5882 -2.25898,2.146 -3.55317,3.3822 -3.89201,3.7211 -5.98631,5.9862 -10.84155,9.998 -14.56888,12.0311 -3.6143,2.033 -6.21588,3.0505 -7.7972,3.0505 -1.92015,0 -2.87955,-1.1914 -2.87955,-3.5633 0,-4.518 4.11456,-11.6269 12.35979,-21.3405 5.19569,-6.09921 10.67561,-10.38774 16.43599,-12.87258 3.27553,-1.46836 6.10904,-2.20903 8.48098,-2.20903 z"
     id="rect3319"
     inkscape:connector-curvature="0" />
</svg>
